<mxfile host="app.diagrams.net" agent="Mozilla/5.0 (Windows NT 10.0; Win64; x64) AppleWebKit/537.36 (KHTML, like Gecko) Chrome/131.0.0.0 Safari/537.36" version="25.0.3">
  <diagram id="Ht1M8jgEwFfnCIfOTk4-" name="Page-1">
    <mxGraphModel dx="880" dy="1261" grid="1" gridSize="10" guides="1" tooltips="1" connect="1" arrows="1" fold="1" page="1" pageScale="1" pageWidth="1169" pageHeight="827" math="0" shadow="0">
      <root>
        <mxCell id="0" />
        <mxCell id="1" parent="0" />
        <mxCell id="UEzPUAAOIrF-is8g5C7q-176" value="Shared Services Account" style="points=[[0,0],[0.25,0],[0.5,0],[0.75,0],[1,0],[1,0.25],[1,0.5],[1,0.75],[1,1],[0.75,1],[0.5,1],[0.25,1],[0,1],[0,0.75],[0,0.5],[0,0.25]];outlineConnect=0;gradientColor=none;html=1;whiteSpace=wrap;fontSize=12;fontStyle=0;shape=mxgraph.aws4.group;grIcon=mxgraph.aws4.group_aws_cloud_alt;strokeColor=#232F3E;fillColor=none;verticalAlign=top;align=left;spacingLeft=30;fontColor=#232F3E;dashed=0;labelBackgroundColor=#ffffff;container=1;pointerEvents=0;collapsible=0;recursiveResize=0;" parent="1" vertex="1">
          <mxGeometry x="198" y="-170" width="220" height="160" as="geometry" />
        </mxCell>
        <mxCell id="UEzPUAAOIrF-is8g5C7q-185" value="Log Archive Account" style="points=[[0,0],[0.25,0],[0.5,0],[0.75,0],[1,0],[1,0.25],[1,0.5],[1,0.75],[1,1],[0.75,1],[0.5,1],[0.25,1],[0,1],[0,0.75],[0,0.5],[0,0.25]];outlineConnect=0;gradientColor=none;html=1;whiteSpace=wrap;fontSize=12;fontStyle=0;shape=mxgraph.aws4.group;grIcon=mxgraph.aws4.group_aws_cloud_alt;strokeColor=#232F3E;fillColor=none;verticalAlign=top;align=left;spacingLeft=30;fontColor=#232F3E;dashed=0;labelBackgroundColor=#ffffff;container=1;pointerEvents=0;collapsible=0;recursiveResize=0;" parent="1" vertex="1">
          <mxGeometry x="440" y="-179" width="230" height="159.5" as="geometry" />
        </mxCell>
        <mxCell id="UEzPUAAOIrF-is8g5C7q-186" value="Security Account" style="points=[[0,0],[0.25,0],[0.5,0],[0.75,0],[1,0],[1,0.25],[1,0.5],[1,0.75],[1,1],[0.75,1],[0.5,1],[0.25,1],[0,1],[0,0.75],[0,0.5],[0,0.25]];outlineConnect=0;gradientColor=none;html=1;whiteSpace=wrap;fontSize=12;fontStyle=0;shape=mxgraph.aws4.group;grIcon=mxgraph.aws4.group_aws_cloud_alt;strokeColor=#232F3E;fillColor=none;verticalAlign=top;align=left;spacingLeft=30;fontColor=#232F3E;dashed=0;labelBackgroundColor=#ffffff;container=1;pointerEvents=0;collapsible=0;recursiveResize=0;" parent="1" vertex="1">
          <mxGeometry x="710" y="-179" width="230" height="179.5" as="geometry" />
        </mxCell>
        <mxCell id="UEzPUAAOIrF-is8g5C7q-175" value="AWS Cloud" style="points=[[0,0],[0.25,0],[0.5,0],[0.75,0],[1,0],[1,0.25],[1,0.5],[1,0.75],[1,1],[0.75,1],[0.5,1],[0.25,1],[0,1],[0,0.75],[0,0.5],[0,0.25]];outlineConnect=0;gradientColor=none;html=1;whiteSpace=wrap;fontSize=12;fontStyle=0;shape=mxgraph.aws4.group;grIcon=mxgraph.aws4.group_aws_cloud_alt;strokeColor=#232F3E;fillColor=none;verticalAlign=top;align=left;spacingLeft=30;fontColor=#232F3E;dashed=0;labelBackgroundColor=#ffffff;container=1;pointerEvents=0;collapsible=0;recursiveResize=0;" parent="1" vertex="1">
          <mxGeometry x="219" y="-810" width="941" height="540" as="geometry" />
        </mxCell>
        <mxCell id="GGta7rH64YQaAk88QWs_-3" value="" style="group" vertex="1" connectable="0" parent="UEzPUAAOIrF-is8g5C7q-175">
          <mxGeometry x="181" y="138.75" width="88.75" height="110" as="geometry" />
        </mxCell>
        <mxCell id="GGta7rH64YQaAk88QWs_-23" value="web Console" style="points=[[0,0],[0.25,0],[0.5,0],[0.75,0],[1,0],[1,0.25],[1,0.5],[1,0.75],[1,1],[0.75,1],[0.5,1],[0.25,1],[0,1],[0,0.75],[0,0.5],[0,0.25]];outlineConnect=0;gradientColor=none;html=1;whiteSpace=wrap;fontSize=12;fontStyle=0;shape=mxgraph.aws4.group;grIcon=mxgraph.aws4.group_aws_cloud_alt;strokeColor=#232F3E;fillColor=none;verticalAlign=top;align=left;spacingLeft=30;fontColor=#232F3E;dashed=0;labelBackgroundColor=#ffffff;container=1;pointerEvents=0;collapsible=0;recursiveResize=0;" vertex="1" parent="GGta7rH64YQaAk88QWs_-3">
          <mxGeometry x="-140" y="-88" width="220" height="198" as="geometry" />
        </mxCell>
        <mxCell id="UEzPUAAOIrF-is8g5C7q-177" value="Amazon S3&lt;br&gt;Bucket&lt;br&gt;" style="outlineConnect=0;fontColor=#232F3E;gradientColor=none;fillColor=#277116;strokeColor=none;dashed=0;verticalLabelPosition=bottom;verticalAlign=top;align=center;html=1;fontSize=12;fontStyle=0;aspect=fixed;pointerEvents=1;shape=mxgraph.aws4.bucket;labelBackgroundColor=#ffffff;" parent="GGta7rH64YQaAk88QWs_-23" vertex="1">
          <mxGeometry x="94.62" y="28" width="38.46" height="40" as="geometry" />
        </mxCell>
        <mxCell id="GGta7rH64YQaAk88QWs_-26" value="" style="group" vertex="1" connectable="0" parent="GGta7rH64YQaAk88QWs_-3">
          <mxGeometry x="1.0999999999999996" y="10" width="70" height="67.12983425414365" as="geometry" />
        </mxCell>
        <mxCell id="GGta7rH64YQaAk88QWs_-1" value="" style="sketch=0;points=[[0,0,0],[0.25,0,0],[0.5,0,0],[0.75,0,0],[1,0,0],[0,1,0],[0.25,1,0],[0.5,1,0],[0.75,1,0],[1,1,0],[0,0.25,0],[0,0.5,0],[0,0.75,0],[1,0.25,0],[1,0.5,0],[1,0.75,0]];outlineConnect=0;fontColor=#232F3E;fillColor=#DD344C;strokeColor=#ffffff;dashed=0;verticalLabelPosition=bottom;verticalAlign=top;align=center;html=1;fontSize=12;fontStyle=0;aspect=fixed;shape=mxgraph.aws4.resourceIcon;resIcon=mxgraph.aws4.amplify;" vertex="1" parent="GGta7rH64YQaAk88QWs_-26">
          <mxGeometry x="16.43" width="37.13" height="37.13" as="geometry" />
        </mxCell>
        <mxCell id="GGta7rH64YQaAk88QWs_-2" value="&lt;font style=&quot;vertical-align: inherit;&quot;&gt;&lt;font style=&quot;vertical-align: inherit; font-size: 10px;&quot;&gt;AMPLIFY&lt;/font&gt;&lt;/font&gt;" style="text;html=1;align=center;verticalAlign=middle;resizable=0;points=[];autosize=1;strokeColor=none;fillColor=none;" vertex="1" parent="GGta7rH64YQaAk88QWs_-26">
          <mxGeometry y="37.129834254143645" width="70" height="30" as="geometry" />
        </mxCell>
        <mxCell id="GGta7rH64YQaAk88QWs_-39" value="" style="edgeStyle=orthogonalEdgeStyle;html=1;endArrow=block;elbow=vertical;startArrow=none;endFill=1;strokeColor=#545B64;rounded=0;entryX=0.5;entryY=0;entryDx=0;entryDy=0;entryPerimeter=0;" edge="1" parent="GGta7rH64YQaAk88QWs_-3" source="UEzPUAAOIrF-is8g5C7q-177" target="GGta7rH64YQaAk88QWs_-1">
          <mxGeometry width="100" relative="1" as="geometry">
            <mxPoint x="30" y="60" as="sourcePoint" />
            <mxPoint x="130" y="60" as="targetPoint" />
          </mxGeometry>
        </mxCell>
        <mxCell id="GGta7rH64YQaAk88QWs_-21" value="" style="group" vertex="1" connectable="0" parent="UEzPUAAOIrF-is8g5C7q-175">
          <mxGeometry x="54.5" y="138.75" width="80" height="68.5" as="geometry" />
        </mxCell>
        <mxCell id="GGta7rH64YQaAk88QWs_-27" value="" style="group" vertex="1" connectable="0" parent="GGta7rH64YQaAk88QWs_-21">
          <mxGeometry width="80" height="68.5" as="geometry" />
        </mxCell>
        <mxCell id="GGta7rH64YQaAk88QWs_-16" value="" style="sketch=0;points=[[0,0,0],[0.25,0,0],[0.5,0,0],[0.75,0,0],[1,0,0],[0,1,0],[0.25,1,0],[0.5,1,0],[0.75,1,0],[1,1,0],[0,0.25,0],[0,0.5,0],[0,0.75,0],[1,0.25,0],[1,0.5,0],[1,0.75,0]];outlineConnect=0;fontColor=#232F3E;fillColor=#8C4FFF;strokeColor=#ffffff;dashed=0;verticalLabelPosition=bottom;verticalAlign=top;align=center;html=1;fontSize=12;fontStyle=0;aspect=fixed;shape=mxgraph.aws4.resourceIcon;resIcon=mxgraph.aws4.cloudfront;" vertex="1" parent="GGta7rH64YQaAk88QWs_-27">
          <mxGeometry x="20.75" width="38.5" height="38.5" as="geometry" />
        </mxCell>
        <mxCell id="GGta7rH64YQaAk88QWs_-20" value="CloudFront" style="text;html=1;align=center;verticalAlign=middle;resizable=0;points=[];autosize=1;strokeColor=none;fillColor=none;" vertex="1" parent="GGta7rH64YQaAk88QWs_-27">
          <mxGeometry y="38.5" width="80" height="30" as="geometry" />
        </mxCell>
        <mxCell id="GGta7rH64YQaAk88QWs_-24" value="" style="group" vertex="1" connectable="0" parent="UEzPUAAOIrF-is8g5C7q-175">
          <mxGeometry x="38.73" y="292" width="240.00000000000003" height="234.75" as="geometry" />
        </mxCell>
        <mxCell id="GGta7rH64YQaAk88QWs_-6" value="" style="group" vertex="1" connectable="0" parent="GGta7rH64YQaAk88QWs_-24">
          <mxGeometry x="10.770000000000024" y="119.5" width="90" height="70.5" as="geometry" />
        </mxCell>
        <mxCell id="GGta7rH64YQaAk88QWs_-4" value="" style="sketch=0;points=[[0,0,0],[0.25,0,0],[0.5,0,0],[0.75,0,0],[1,0,0],[0,1,0],[0.25,1,0],[0.5,1,0],[0.75,1,0],[1,1,0],[0,0.25,0],[0,0.5,0],[0,0.75,0],[1,0.25,0],[1,0.5,0],[1,0.75,0]];outlineConnect=0;fontColor=#232F3E;fillColor=#E7157B;strokeColor=#ffffff;dashed=0;verticalLabelPosition=bottom;verticalAlign=top;align=center;html=1;fontSize=12;fontStyle=0;aspect=fixed;shape=mxgraph.aws4.resourceIcon;resIcon=mxgraph.aws4.api_gateway;" vertex="1" parent="GGta7rH64YQaAk88QWs_-6">
          <mxGeometry x="24.749999999999986" width="40.5" height="40.5" as="geometry" />
        </mxCell>
        <mxCell id="GGta7rH64YQaAk88QWs_-5" value="&lt;font style=&quot;vertical-align: inherit;&quot;&gt;&lt;font style=&quot;vertical-align: inherit;&quot;&gt;API Gateway&lt;/font&gt;&lt;/font&gt;" style="text;html=1;align=center;verticalAlign=middle;resizable=0;points=[];autosize=1;strokeColor=none;fillColor=none;" vertex="1" parent="GGta7rH64YQaAk88QWs_-6">
          <mxGeometry y="40.5" width="90" height="30" as="geometry" />
        </mxCell>
        <mxCell id="GGta7rH64YQaAk88QWs_-9" value="" style="group" vertex="1" connectable="0" parent="GGta7rH64YQaAk88QWs_-24">
          <mxGeometry x="130.35" y="119.5" width="90" height="70.5" as="geometry" />
        </mxCell>
        <mxCell id="GGta7rH64YQaAk88QWs_-7" value="" style="sketch=0;points=[[0,0,0],[0.25,0,0],[0.5,0,0],[0.75,0,0],[1,0,0],[0,1,0],[0.25,1,0],[0.5,1,0],[0.75,1,0],[1,1,0],[0,0.25,0],[0,0.5,0],[0,0.75,0],[1,0.25,0],[1,0.5,0],[1,0.75,0]];outlineConnect=0;fontColor=#232F3E;fillColor=#DD344C;strokeColor=#ffffff;dashed=0;verticalLabelPosition=bottom;verticalAlign=top;align=center;html=1;fontSize=12;fontStyle=0;aspect=fixed;shape=mxgraph.aws4.resourceIcon;resIcon=mxgraph.aws4.cognito;" vertex="1" parent="GGta7rH64YQaAk88QWs_-9">
          <mxGeometry x="25.370000000000005" width="40.5" height="40.5" as="geometry" />
        </mxCell>
        <mxCell id="GGta7rH64YQaAk88QWs_-8" value="&lt;font style=&quot;vertical-align: inherit;&quot;&gt;&lt;font style=&quot;vertical-align: inherit;&quot;&gt;&lt;font style=&quot;vertical-align: inherit;&quot;&gt;&lt;font style=&quot;vertical-align: inherit;&quot;&gt;AWS cognito&lt;/font&gt;&lt;/font&gt;&lt;/font&gt;&lt;/font&gt;" style="text;html=1;align=center;verticalAlign=middle;resizable=0;points=[];autosize=1;strokeColor=none;fillColor=none;" vertex="1" parent="GGta7rH64YQaAk88QWs_-9">
          <mxGeometry y="40.5" width="90" height="30" as="geometry" />
        </mxCell>
        <mxCell id="GGta7rH64YQaAk88QWs_-12" value="" style="group" vertex="1" connectable="0" parent="GGta7rH64YQaAk88QWs_-24">
          <mxGeometry x="135.35" y="29.5" width="80" height="70" as="geometry" />
        </mxCell>
        <mxCell id="GGta7rH64YQaAk88QWs_-10" value="" style="sketch=0;points=[[0,0,0],[0.25,0,0],[0.5,0,0],[0.75,0,0],[1,0,0],[0,1,0],[0.25,1,0],[0.5,1,0],[0.75,1,0],[1,1,0],[0,0.25,0],[0,0.5,0],[0,0.75,0],[1,0.25,0],[1,0.5,0],[1,0.75,0]];outlineConnect=0;fontColor=#232F3E;fillColor=#DD344C;strokeColor=#ffffff;dashed=0;verticalLabelPosition=bottom;verticalAlign=top;align=center;html=1;fontSize=12;fontStyle=0;aspect=fixed;shape=mxgraph.aws4.resourceIcon;resIcon=mxgraph.aws4.identity_and_access_management;" vertex="1" parent="GGta7rH64YQaAk88QWs_-12">
          <mxGeometry x="20" width="40" height="40" as="geometry" />
        </mxCell>
        <mxCell id="GGta7rH64YQaAk88QWs_-11" value="AWS IAM" style="text;html=1;align=center;verticalAlign=middle;resizable=0;points=[];autosize=1;strokeColor=none;fillColor=none;" vertex="1" parent="GGta7rH64YQaAk88QWs_-12">
          <mxGeometry y="40" width="80" height="30" as="geometry" />
        </mxCell>
        <mxCell id="GGta7rH64YQaAk88QWs_-17" value="" style="sketch=0;points=[[0,0,0],[0.25,0,0],[0.5,0,0],[0.75,0,0],[1,0,0],[0,1,0],[0.25,1,0],[0.5,1,0],[0.75,1,0],[1,1,0],[0,0.25,0],[0,0.5,0],[0,0.75,0],[1,0.25,0],[1,0.5,0],[1,0.75,0]];outlineConnect=0;fontColor=#232F3E;fillColor=#8C4FFF;strokeColor=#ffffff;dashed=0;verticalLabelPosition=bottom;verticalAlign=top;align=center;html=1;fontSize=12;fontStyle=0;aspect=fixed;shape=mxgraph.aws4.resourceIcon;resIcon=mxgraph.aws4.route_53;" vertex="1" parent="GGta7rH64YQaAk88QWs_-24">
          <mxGeometry x="35.52" y="30" width="40" height="40" as="geometry" />
        </mxCell>
        <mxCell id="GGta7rH64YQaAk88QWs_-18" value="Route 53" style="text;html=1;align=center;verticalAlign=middle;resizable=0;points=[];autosize=1;strokeColor=none;fillColor=none;" vertex="1" parent="GGta7rH64YQaAk88QWs_-24">
          <mxGeometry x="20.770000000000003" y="69.5" width="70" height="30" as="geometry" />
        </mxCell>
        <mxCell id="GGta7rH64YQaAk88QWs_-22" value="" style="points=[[0,0],[0.25,0],[0.5,0],[0.75,0],[1,0],[1,0.25],[1,0.5],[1,0.75],[1,1],[0.75,1],[0.5,1],[0.25,1],[0,1],[0,0.75],[0,0.5],[0,0.25]];outlineConnect=0;gradientColor=none;html=1;whiteSpace=wrap;fontSize=12;fontStyle=0;shape=mxgraph.aws4.group;grIcon=mxgraph.aws4.group_aws_cloud_alt;strokeColor=#232F3E;fillColor=none;verticalAlign=top;align=left;spacingLeft=30;fontColor=#232F3E;dashed=0;labelBackgroundColor=#ffffff;container=1;pointerEvents=0;collapsible=0;recursiveResize=0;" vertex="1" parent="GGta7rH64YQaAk88QWs_-24">
          <mxGeometry width="220" height="209.5" as="geometry" />
        </mxCell>
        <mxCell id="GGta7rH64YQaAk88QWs_-32" value="" style="edgeStyle=orthogonalEdgeStyle;html=1;endArrow=block;elbow=vertical;startArrow=block;startFill=1;endFill=1;strokeColor=#545B64;rounded=0;entryX=0.5;entryY=1;entryDx=0;entryDy=0;entryPerimeter=0;exitX=0.5;exitY=0;exitDx=0;exitDy=0;exitPerimeter=0;" edge="1" parent="GGta7rH64YQaAk88QWs_-24" source="GGta7rH64YQaAk88QWs_-4" target="GGta7rH64YQaAk88QWs_-17">
          <mxGeometry width="100" relative="1" as="geometry">
            <mxPoint x="55.26999999999998" y="108" as="sourcePoint" />
            <mxPoint x="272.27" y="198" as="targetPoint" />
          </mxGeometry>
        </mxCell>
        <mxCell id="GGta7rH64YQaAk88QWs_-35" value="" style="edgeStyle=orthogonalEdgeStyle;html=1;endArrow=block;elbow=vertical;startArrow=block;startFill=1;endFill=1;strokeColor=#545B64;rounded=0;exitX=1;exitY=0.5;exitDx=0;exitDy=0;exitPerimeter=0;entryX=0;entryY=0.5;entryDx=0;entryDy=0;entryPerimeter=0;" edge="1" parent="GGta7rH64YQaAk88QWs_-24" source="GGta7rH64YQaAk88QWs_-4" target="GGta7rH64YQaAk88QWs_-7">
          <mxGeometry width="100" relative="1" as="geometry">
            <mxPoint x="172.26999999999998" y="198" as="sourcePoint" />
            <mxPoint x="272.27" y="198" as="targetPoint" />
          </mxGeometry>
        </mxCell>
        <mxCell id="GGta7rH64YQaAk88QWs_-36" value="" style="edgeStyle=orthogonalEdgeStyle;html=1;endArrow=block;elbow=vertical;startArrow=block;startFill=1;endFill=1;strokeColor=#545B64;rounded=0;entryX=0.5;entryY=1;entryDx=0;entryDy=0;entryPerimeter=0;exitX=0.5;exitY=0;exitDx=0;exitDy=0;exitPerimeter=0;" edge="1" parent="GGta7rH64YQaAk88QWs_-24">
          <mxGeometry width="100" relative="1" as="geometry">
            <mxPoint x="178" y="119" as="sourcePoint" />
            <mxPoint x="178" y="69" as="targetPoint" />
          </mxGeometry>
        </mxCell>
        <mxCell id="GGta7rH64YQaAk88QWs_-41" value="Front-End" style="points=[[0,0],[0.25,0],[0.5,0],[0.75,0],[1,0],[1,0.25],[1,0.5],[1,0.75],[1,1],[0.75,1],[0.5,1],[0.25,1],[0,1],[0,0.75],[0,0.5],[0,0.25]];outlineConnect=0;gradientColor=none;html=1;whiteSpace=wrap;fontSize=12;fontStyle=0;shape=mxgraph.aws4.group;grIcon=mxgraph.aws4.group_aws_cloud_alt;strokeColor=#232F3E;fillColor=none;verticalAlign=top;align=left;spacingLeft=30;fontColor=#232F3E;dashed=0;labelBackgroundColor=#ffffff;container=1;pointerEvents=0;collapsible=0;recursiveResize=0;" vertex="1" parent="GGta7rH64YQaAk88QWs_-24">
          <mxGeometry x="-18.86" y="-270" width="257.73" height="504.75" as="geometry" />
        </mxCell>
        <mxCell id="GGta7rH64YQaAk88QWs_-37" value="" style="edgeStyle=orthogonalEdgeStyle;html=1;endArrow=block;elbow=vertical;startArrow=block;startFill=1;endFill=1;strokeColor=#545B64;rounded=0;" edge="1" parent="UEzPUAAOIrF-is8g5C7q-175" target="GGta7rH64YQaAk88QWs_-23">
          <mxGeometry width="100" relative="1" as="geometry">
            <mxPoint x="145" y="290" as="sourcePoint" />
            <mxPoint x="144.73000000000002" y="239" as="targetPoint" />
          </mxGeometry>
        </mxCell>
        <mxCell id="GGta7rH64YQaAk88QWs_-40" value="" style="edgeStyle=orthogonalEdgeStyle;html=1;endArrow=block;elbow=vertical;startArrow=none;endFill=1;strokeColor=#545B64;rounded=0;" edge="1" parent="UEzPUAAOIrF-is8g5C7q-175" source="UEzPUAAOIrF-is8g5C7q-177" target="GGta7rH64YQaAk88QWs_-16">
          <mxGeometry width="100" relative="1" as="geometry">
            <mxPoint x="211" y="190" as="sourcePoint" />
            <mxPoint x="311" y="190" as="targetPoint" />
          </mxGeometry>
        </mxCell>
        <mxCell id="GGta7rH64YQaAk88QWs_-42" value="" style="points=[[0,0],[0.25,0],[0.5,0],[0.75,0],[1,0],[1,0.25],[1,0.5],[1,0.75],[1,1],[0.75,1],[0.5,1],[0.25,1],[0,1],[0,0.75],[0,0.5],[0,0.25]];outlineConnect=0;gradientColor=none;html=1;whiteSpace=wrap;fontSize=12;fontStyle=0;shape=mxgraph.aws4.group;grIcon=mxgraph.aws4.group_aws_cloud_alt;strokeColor=#232F3E;fillColor=none;verticalAlign=top;align=left;spacingLeft=30;fontColor=#232F3E;dashed=0;labelBackgroundColor=#ffffff;container=1;pointerEvents=0;collapsible=0;recursiveResize=0;" vertex="1" parent="UEzPUAAOIrF-is8g5C7q-175">
          <mxGeometry x="321" y="51" width="220" height="212.75" as="geometry" />
        </mxCell>
        <mxCell id="GGta7rH64YQaAk88QWs_-45" value="Amazon S3&lt;br&gt;Bucket&lt;br&gt;" style="outlineConnect=0;fontColor=#232F3E;gradientColor=none;fillColor=#277116;strokeColor=none;dashed=0;verticalLabelPosition=bottom;verticalAlign=top;align=center;html=1;fontSize=12;fontStyle=0;aspect=fixed;pointerEvents=1;shape=mxgraph.aws4.bucket;labelBackgroundColor=#ffffff;" vertex="1" parent="GGta7rH64YQaAk88QWs_-42">
          <mxGeometry x="50" y="42.75" width="38.46" height="40" as="geometry" />
        </mxCell>
        <mxCell id="GGta7rH64YQaAk88QWs_-47" value="" style="group" vertex="1" connectable="0" parent="GGta7rH64YQaAk88QWs_-42">
          <mxGeometry x="90" y="122.75" width="90" height="67.25" as="geometry" />
        </mxCell>
        <mxCell id="GGta7rH64YQaAk88QWs_-14" value="" style="sketch=0;points=[[0,0,0],[0.25,0,0],[0.5,0,0],[0.75,0,0],[1,0,0],[0,1,0],[0.25,1,0],[0.5,1,0],[0.75,1,0],[1,1,0],[0,0.25,0],[0,0.5,0],[0,0.75,0],[1,0.25,0],[1,0.5,0],[1,0.75,0]];outlineConnect=0;fontColor=#232F3E;fillColor=#E7157B;strokeColor=#ffffff;dashed=0;verticalLabelPosition=bottom;verticalAlign=top;align=center;html=1;fontSize=12;fontStyle=0;aspect=fixed;shape=mxgraph.aws4.resourceIcon;resIcon=mxgraph.aws4.step_functions;" vertex="1" parent="GGta7rH64YQaAk88QWs_-47">
          <mxGeometry x="26.370000000000005" width="37.25" height="37.25" as="geometry" />
        </mxCell>
        <mxCell id="GGta7rH64YQaAk88QWs_-46" value="Task runner" style="text;html=1;align=center;verticalAlign=middle;resizable=0;points=[];autosize=1;strokeColor=none;fillColor=none;" vertex="1" parent="GGta7rH64YQaAk88QWs_-47">
          <mxGeometry y="37.25" width="90" height="30" as="geometry" />
        </mxCell>
        <mxCell id="GGta7rH64YQaAk88QWs_-63" value="Back End" style="text;html=1;align=center;verticalAlign=middle;resizable=0;points=[];autosize=1;strokeColor=none;fillColor=none;" vertex="1" parent="GGta7rH64YQaAk88QWs_-42">
          <mxGeometry x="20" width="70" height="30" as="geometry" />
        </mxCell>
        <mxCell id="GGta7rH64YQaAk88QWs_-67" value="" style="edgeStyle=orthogonalEdgeStyle;html=1;endArrow=block;elbow=vertical;startArrow=block;startFill=1;endFill=1;strokeColor=#545B64;rounded=0;" edge="1" parent="GGta7rH64YQaAk88QWs_-42" source="GGta7rH64YQaAk88QWs_-45" target="GGta7rH64YQaAk88QWs_-14">
          <mxGeometry width="100" relative="1" as="geometry">
            <mxPoint x="-10" y="122.75" as="sourcePoint" />
            <mxPoint x="90" y="122.75" as="targetPoint" />
          </mxGeometry>
        </mxCell>
        <mxCell id="GGta7rH64YQaAk88QWs_-65" value="" style="points=[[0,0],[0.25,0],[0.5,0],[0.75,0],[1,0],[1,0.25],[1,0.5],[1,0.75],[1,1],[0.75,1],[0.5,1],[0.25,1],[0,1],[0,0.75],[0,0.5],[0,0.25]];outlineConnect=0;gradientColor=none;html=1;whiteSpace=wrap;fontSize=12;fontStyle=0;shape=mxgraph.aws4.group;grIcon=mxgraph.aws4.group_aws_cloud_alt;strokeColor=#232F3E;fillColor=none;verticalAlign=top;align=left;spacingLeft=30;fontColor=#232F3E;dashed=0;labelBackgroundColor=#ffffff;container=1;pointerEvents=0;collapsible=0;recursiveResize=0;" vertex="1" parent="UEzPUAAOIrF-is8g5C7q-175">
          <mxGeometry x="311" y="20" width="609" height="260" as="geometry" />
        </mxCell>
        <mxCell id="GGta7rH64YQaAk88QWs_-43" value="" style="points=[[0,0],[0.25,0],[0.5,0],[0.75,0],[1,0],[1,0.25],[1,0.5],[1,0.75],[1,1],[0.75,1],[0.5,1],[0.25,1],[0,1],[0,0.75],[0,0.5],[0,0.25]];outlineConnect=0;gradientColor=none;html=1;whiteSpace=wrap;fontSize=12;fontStyle=0;shape=mxgraph.aws4.group;grIcon=mxgraph.aws4.group_aws_cloud_alt;strokeColor=#232F3E;fillColor=none;verticalAlign=top;align=left;spacingLeft=30;fontColor=#232F3E;dashed=0;labelBackgroundColor=#ffffff;container=1;pointerEvents=0;collapsible=0;recursiveResize=0;" vertex="1" parent="1">
          <mxGeometry x="810" y="-760" width="320" height="214" as="geometry" />
        </mxCell>
        <mxCell id="GGta7rH64YQaAk88QWs_-52" value="" style="group" vertex="1" connectable="0" parent="GGta7rH64YQaAk88QWs_-43">
          <mxGeometry x="20" y="80.38" width="50" height="72" as="geometry" />
        </mxCell>
        <mxCell id="GGta7rH64YQaAk88QWs_-15" value="" style="sketch=0;points=[[0,0,0],[0.25,0,0],[0.5,0,0],[0.75,0,0],[1,0,0],[0,1,0],[0.25,1,0],[0.5,1,0],[0.75,1,0],[1,1,0],[0,0.25,0],[0,0.5,0],[0,0.75,0],[1,0.25,0],[1,0.5,0],[1,0.75,0]];outlineConnect=0;fontColor=#232F3E;fillColor=#C925D1;strokeColor=#ffffff;dashed=0;verticalLabelPosition=bottom;verticalAlign=top;align=center;html=1;fontSize=12;fontStyle=0;aspect=fixed;shape=mxgraph.aws4.resourceIcon;resIcon=mxgraph.aws4.rds;" vertex="1" parent="GGta7rH64YQaAk88QWs_-52">
          <mxGeometry x="2.3700000000000045" width="47.63" height="47.63" as="geometry" />
        </mxCell>
        <mxCell id="GGta7rH64YQaAk88QWs_-51" value="RDS" style="text;html=1;align=center;verticalAlign=middle;resizable=0;points=[];autosize=1;strokeColor=none;fillColor=none;" vertex="1" parent="GGta7rH64YQaAk88QWs_-52">
          <mxGeometry y="42" width="50" height="30" as="geometry" />
        </mxCell>
        <mxCell id="GGta7rH64YQaAk88QWs_-58" value="Camada de Dados" style="text;html=1;align=center;verticalAlign=middle;resizable=0;points=[];autosize=1;strokeColor=none;fillColor=none;" vertex="1" parent="GGta7rH64YQaAk88QWs_-43">
          <mxGeometry x="20" width="120" height="30" as="geometry" />
        </mxCell>
        <mxCell id="GGta7rH64YQaAk88QWs_-64" style="edgeStyle=orthogonalEdgeStyle;rounded=0;orthogonalLoop=1;jettySize=auto;html=1;exitX=1;exitY=0.5;exitDx=0;exitDy=0;" edge="1" parent="GGta7rH64YQaAk88QWs_-43" source="GGta7rH64YQaAk88QWs_-59" target="GGta7rH64YQaAk88QWs_-61">
          <mxGeometry relative="1" as="geometry" />
        </mxCell>
        <mxCell id="GGta7rH64YQaAk88QWs_-59" value="" style="points=[[0,0],[0.25,0],[0.5,0],[0.75,0],[1,0],[1,0.25],[1,0.5],[1,0.75],[1,1],[0.75,1],[0.5,1],[0.25,1],[0,1],[0,0.75],[0,0.5],[0,0.25]];outlineConnect=0;gradientColor=none;html=1;whiteSpace=wrap;fontSize=12;fontStyle=0;shape=mxgraph.aws4.group;grIcon=mxgraph.aws4.group_aws_cloud_alt;strokeColor=#232F3E;fillColor=none;verticalAlign=top;align=left;spacingLeft=30;fontColor=#232F3E;dashed=1;labelBackgroundColor=#ffffff;container=1;pointerEvents=0;collapsible=0;recursiveResize=0;" vertex="1" parent="GGta7rH64YQaAk88QWs_-43">
          <mxGeometry x="10" y="30" width="205" height="172.75" as="geometry" />
        </mxCell>
        <mxCell id="GGta7rH64YQaAk88QWs_-57" value="" style="group" vertex="1" connectable="0" parent="GGta7rH64YQaAk88QWs_-59">
          <mxGeometry x="80" y="92.75" width="100" height="80" as="geometry" />
        </mxCell>
        <mxCell id="GGta7rH64YQaAk88QWs_-55" value="" style="sketch=0;points=[[0,0,0],[0.25,0,0],[0.5,0,0],[0.75,0,0],[1,0,0],[0,1,0],[0.25,1,0],[0.5,1,0],[0.75,1,0],[1,1,0],[0,0.25,0],[0,0.5,0],[0,0.75,0],[1,0.25,0],[1,0.5,0],[1,0.75,0]];outlineConnect=0;fontColor=#232F3E;fillColor=#ED7100;strokeColor=#ffffff;dashed=0;verticalLabelPosition=bottom;verticalAlign=top;align=center;html=1;fontSize=12;fontStyle=0;aspect=fixed;shape=mxgraph.aws4.resourceIcon;resIcon=mxgraph.aws4.fargate;" vertex="1" parent="GGta7rH64YQaAk88QWs_-57">
          <mxGeometry x="25.000000000000007" width="50" height="50" as="geometry" />
        </mxCell>
        <mxCell id="GGta7rH64YQaAk88QWs_-56" value="AWS Forgate" style="text;html=1;align=center;verticalAlign=middle;resizable=0;points=[];autosize=1;strokeColor=none;fillColor=none;" vertex="1" parent="GGta7rH64YQaAk88QWs_-57">
          <mxGeometry y="50" width="100" height="30" as="geometry" />
        </mxCell>
        <mxCell id="GGta7rH64YQaAk88QWs_-60" value="" style="group" vertex="1" connectable="0" parent="GGta7rH64YQaAk88QWs_-59">
          <mxGeometry x="90" y="14" width="105" height="79.11111111111111" as="geometry" />
        </mxCell>
        <mxCell id="GGta7rH64YQaAk88QWs_-53" value="" style="sketch=0;points=[[0,0,0],[0.25,0,0],[0.5,0,0],[0.75,0,0],[1,0,0],[0,1,0],[0.25,1,0],[0.5,1,0],[0.75,1,0],[1,1,0],[0,0.25,0],[0,0.5,0],[0,0.75,0],[1,0.25,0],[1,0.5,0],[1,0.75,0]];outlineConnect=0;fontColor=#232F3E;fillColor=#ED7100;strokeColor=#ffffff;dashed=0;verticalLabelPosition=bottom;verticalAlign=top;align=center;html=1;fontSize=12;fontStyle=0;aspect=fixed;shape=mxgraph.aws4.resourceIcon;resIcon=mxgraph.aws4.auto_scaling2;" vertex="1" parent="GGta7rH64YQaAk88QWs_-60">
          <mxGeometry x="10" width="45.77" height="45.77" as="geometry" />
        </mxCell>
        <mxCell id="GGta7rH64YQaAk88QWs_-54" value="&lt;font style=&quot;font-size: 10px;&quot;&gt;EC2 Auto scaling&lt;/font&gt;" style="text;html=1;align=center;verticalAlign=middle;resizable=0;points=[];autosize=1;strokeColor=none;fillColor=none;" vertex="1" parent="GGta7rH64YQaAk88QWs_-60">
          <mxGeometry x="5" y="49.111111111111114" width="100" height="30" as="geometry" />
        </mxCell>
        <mxCell id="GGta7rH64YQaAk88QWs_-61" value="" style="sketch=0;points=[[0,0,0],[0.25,0,0],[0.5,0,0],[0.75,0,0],[1,0,0],[0,1,0],[0.25,1,0],[0.5,1,0],[0.75,1,0],[1,1,0],[0,0.25,0],[0,0.5,0],[0,0.75,0],[1,0.25,0],[1,0.5,0],[1,0.75,0]];points=[[0,0,0],[0.25,0,0],[0.5,0,0],[0.75,0,0],[1,0,0],[0,1,0],[0.25,1,0],[0.5,1,0],[0.75,1,0],[1,1,0],[0,0.25,0],[0,0.5,0],[0,0.75,0],[1,0.25,0],[1,0.5,0],[1,0.75,0]];outlineConnect=0;fontColor=#232F3E;fillColor=#E7157B;strokeColor=#ffffff;dashed=0;verticalLabelPosition=bottom;verticalAlign=top;align=center;html=1;fontSize=12;fontStyle=0;aspect=fixed;shape=mxgraph.aws4.resourceIcon;resIcon=mxgraph.aws4.cloudwatch_2;" vertex="1" parent="GGta7rH64YQaAk88QWs_-43">
          <mxGeometry x="260" y="80.38" width="50" height="50" as="geometry" />
        </mxCell>
        <mxCell id="GGta7rH64YQaAk88QWs_-62" value="Cloudwatch" style="text;html=1;align=center;verticalAlign=middle;resizable=0;points=[];autosize=1;strokeColor=none;fillColor=none;" vertex="1" parent="GGta7rH64YQaAk88QWs_-43">
          <mxGeometry x="240" y="122.38" width="90" height="30" as="geometry" />
        </mxCell>
        <mxCell id="GGta7rH64YQaAk88QWs_-69" value="" style="edgeStyle=orthogonalEdgeStyle;html=1;endArrow=block;elbow=vertical;startArrow=block;startFill=1;endFill=1;strokeColor=#545B64;rounded=0;exitX=1;exitY=0.5;exitDx=0;exitDy=0;" edge="1" parent="1" source="GGta7rH64YQaAk88QWs_-42" target="GGta7rH64YQaAk88QWs_-59">
          <mxGeometry width="100" relative="1" as="geometry">
            <mxPoint x="530" y="-640" as="sourcePoint" />
            <mxPoint x="630" y="-640" as="targetPoint" />
          </mxGeometry>
        </mxCell>
      </root>
    </mxGraphModel>
  </diagram>
</mxfile>
